# xmcd
#
# Track frame offsets: 
#        150
#        24339
#        47246
#        72030
#        99181
#        122574
#        150075
#        170460
#        193273
#        220254
#        246055
#        268120
#        294352
#        319259
#
# Disc length: 4553 seconds
#
# Revision: 0
# Processed by: cddbd v1.5.2PL0 Copyright (c) Steve Scherf et al.
# Submitted via: ExactAudioCopyFreeDBPlugin 1.0
#
DISCID=bc11c70e
DTITLE=Gabel - Gon Jan Pou Ye
DYEAR=2012
DGENRE=World
TTITLE0=Fe Yo Wew
TTITLE1=Fanm Sa Maew
TTITLE2=Baby Don't Cry
TTITLE3=Gon Jan Pou Ye
TTITLE4=I Believe In You
TTITLE5=Konsyans
TTITLE6=Pa Kite Moun Pou Moun
TTITLE7=Dat's Ok
TTITLE8=9.9
TTITLE9=Li Renmenm
TTITLE10=Konfesyon
TTITLE11=Anbisyon
TTITLE12=Pa Ale
TTITLE13=Pale Kreyol
EXTD=
EXTT0=
EXTT1=
EXTT2=
EXTT3=
EXTT4=
EXTT5=
EXTT6=
EXTT7=
EXTT8=
EXTT9=
EXTT10=
EXTT11=
EXTT12=
EXTT13=
PLAYORDER=
